<?xml version="1.0" encoding="UTF-8" standalone="no"?>
<!-- Created with Inkscape (http://www.inkscape.org/) -->

<svg
   xmlns:dc="http://purl.org/dc/elements/1.1/"
   xmlns:cc="http://creativecommons.org/ns#"
   xmlns:rdf="http://www.w3.org/1999/02/22-rdf-syntax-ns#"
   xmlns:svg="http://www.w3.org/2000/svg"
   xmlns="http://www.w3.org/2000/svg"
   xmlns:sodipodi="http://sodipodi.sourceforge.net/DTD/sodipodi-0.dtd"
   xmlns:inkscape="http://www.inkscape.org/namespaces/inkscape"
   width="128"
   height="128"
   id="svg2"
   version="1.1"
   inkscape:version="0.48.0 r9654"
   sodipodi:docname="ship.png">
  <defs
     id="defs4" />
  <sodipodi:namedview
     id="base"
     pagecolor="#ffffff"
     bordercolor="#666666"
     borderopacity="1.0"
     inkscape:pageopacity="0.0"
     inkscape:pageshadow="2"
     inkscape:zoom="3.959798"
     inkscape:cx="110.97154"
     inkscape:cy="64.015538"
     inkscape:document-units="px"
     inkscape:current-layer="layer1"
     showgrid="false"
     inkscape:window-width="1846"
     inkscape:window-height="1058"
     inkscape:window-x="1746"
     inkscape:window-y="-8"
     inkscape:window-maximized="0" />
  <metadata
     id="metadata7">
    <rdf:RDF>
      <cc:Work
         rdf:about="">
        <dc:format>image/svg+xml</dc:format>
        <dc:type
           rdf:resource="http://purl.org/dc/dcmitype/StillImage" />
        <dc:title></dc:title>
      </cc:Work>
    </rdf:RDF>
  </metadata>
  <g
     inkscape:label="Layer 1"
     inkscape:groupmode="layer"
     id="layer1"
     transform="translate(0,-924.36218)">
    <path
       style="fill:none;stroke:black;stroke-opacity:1;stroke-width:1px;stroke-linejoin:miter;stroke-linecap:butt;fill-rule:evenodd"
       d="m 13.384521,70.926381 c 5.303301,0 10.606602,0 15.909903,0 0.757614,0 1.515229,0 2.272843,0 0.08418,0 0.168359,0 0.252538,0 0.08418,0 0.205844,0.07004 0.252538,0 0.147661,-0.22149 0.168359,-0.505076 0.252538,-0.757614 0.08418,-0.252538 0.200333,-0.496586 0.252539,-0.757615 0.09353,-0.467641 -0.09353,-1.300126 0,-1.767767 0.05221,-0.261029 0.200332,-0.496585 0.252538,-0.757614 0.03302,-0.165089 -0.04083,-0.341744 0,-0.505076 0.09131,-0.365222 0.413771,-0.644931 0.505076,-1.010153 0.04083,-0.163332 0,-0.336717 0,-0.505076 0,-0.168359 0,-0.336718 0,-0.505076 0,-0.841794 0,-1.683588 0,-2.525382 0,-1.178511 0,-2.357022 0,-3.535534 0,-0.296804 0.05707,-1.286959 0,-1.515229 -0.06456,-0.25825 -0.187975,-0.499363 -0.252538,-0.757614 -0.02042,-0.08167 0.03765,-0.177246 0,-0.252538 -0.05324,-0.106479 -0.214892,-0.1396 -0.252538,-0.252538 -0.05324,-0.159719 0,-0.336718 0,-0.505076 0,-0.252539 0,-0.505077 0,-0.757615 0,-0.168359 0.03302,-0.339987 0,-0.505076 -0.05221,-0.261029 -0.200333,-0.496585 -0.252538,-0.757615 -0.06604,-0.330178 0.06604,-0.679973 0,-1.010152 -0.05221,-0.261029 -0.200333,-0.496585 -0.252539,-0.757615 -0.03302,-0.165089 0,-0.336717 0,-0.505076 0,-0.336717 0,-0.673435 0,-1.010152 0,-1.094332 0,-2.188664 0,-3.282996 0,-0.589256 0,-1.178511 0,-1.767767 0,-0.113733 -0.03843,-0.680759 0,-0.757614 0.05324,-0.10648 0.199299,-0.146059 0.252539,-0.252539 0.03765,-0.07529 0,-0.168358 0,-0.252538 0,-0.168359 -0.04083,-0.341744 0,-0.505076 0.04565,-0.182611 0.206885,-0.322466 0.252538,-0.505076 0.06125,-0.244998 -0.07986,-0.518036 0,-0.757615 0.715401,-1.430802 -0.09412,0.376462 0.252538,-1.010152 0.04565,-0.182611 0.206885,-0.322466 0.252538,-0.505077 0.08167,-0.326664 -0.106479,-0.690714 0,-1.010152 0.03765,-0.112939 0.214892,-0.1396 0.252538,-0.252538 0.05324,-0.159719 -0.05324,-0.345357 0,-0.505076 0.03765,-0.112939 0.214892,-0.1396 0.252538,-0.252539 0.05324,-0.159719 -0.05324,-0.345357 0,-0.505076 0.03765,-0.112938 0.199299,-0.146059 0.252538,-0.252538 0.03765,-0.07529 -0.03765,-0.177246 0,-0.252538 0.05324,-0.10648 0.214892,-0.1396 0.252539,-0.252538 3.81e-4,-0.0011 -2.41e-4,-0.757374 0,-0.757615 0.05952,-0.05952 0.193014,0.05952 0.252538,0 0.05952,-0.05952 -0.05952,-0.193014 0,-0.252538 0.05952,-0.05952 0.193014,0.05952 0.252538,0 0.119047,-0.119047 -0.07529,-0.354491 0,-0.505076 0.05324,-0.10648 0.199298,-0.146059 0.252538,-0.252538 0.03765,-0.07529 -0.05952,-0.193015 0,-0.252538 0.52251,-0.522511 -0.02043,0.798465 0.505076,-0.252539 0.07529,-0.150584 -0.119047,-0.386028 0,-0.505076 0.05952,-0.05952 0.193015,0.05952 0.252538,0 0.05952,-0.05952 -0.03765,-0.177246 0,-0.252538 0.03202,-0.06404 0.473056,-0.441036 0.505077,-0.505076 0.03765,-0.07529 -0.05952,-0.193015 0,-0.252538 0.05952,-0.05952 0.193014,0.05952 0.252538,0 0.05952,-0.05952 -0.05952,-0.193015 0,-0.252538 0.05952,-0.05952 0.193014,0.05952 0.252538,0 0.05952,-0.05952 -0.05952,-0.193015 0,-0.252539 0.05952,-0.05952 0.193014,0.05952 0.252538,0 0.08449,-0.08449 -0.08449,-0.420586 0,-0.505076 0.05952,-0.05952 0.193014,0.05952 0.252538,0 0.08441,-0.08441 -0.08441,-0.420668 0,-0.505076 0.05952,-0.05952 0.193015,0.05952 0.252538,0 0.119048,-0.119048 -0.119047,-0.386029 0,-0.505076 0.119048,-0.119048 0.386029,0.119047 0.505077,0 0.0838,-0.0838 -0.0838,-0.421277 0,-0.505077 0.05952,-0.05952 0.193014,0.05952 0.252538,0 0.05952,-0.05952 -0.03765,-0.177246 0,-0.252538 0.05324,-0.106479 0.199298,-0.146059 0.252538,-0.252538 0.17417,-0.34834 -0.305838,-0.225888 0.252538,-0.505076 0.07529,-0.03765 0.193014,0.05952 0.252538,0 0.05952,-0.05952 -0.07529,-0.214892 0,-0.252538 0.150585,-0.07529 0.345357,0.05324 0.505076,0 0.788253,-0.262751 -0.08418,-0.168359 0.252539,-0.505077 0.126269,-0.126269 0.631345,0.126269 0.757614,0 0.05952,-0.05952 -0.05952,-0.193014 0,-0.252538 0.119048,-0.119047 0.386029,0.119048 0.505076,0 0.05952,-0.05952 -0.05952,-0.193014 0,-0.252538 0.0691,-0.0691 0.873154,0.0685 1.010153,0 0.106479,-0.05324 0.139599,-0.214892 0.252538,-0.252538 0.239579,-0.07986 0.518036,0.07986 0.757614,0 0.178572,-0.05952 0.322466,-0.206886 0.505077,-0.252538 0.163332,-0.04083 0.336717,0 0.505076,0 0.168359,0 0.336717,0 0.505076,0 0.505076,0 1.010153,0 1.515229,0 0.165945,0 0.615133,0.04749 0.757614,0 0.870553,-0.290185 0.187072,-0.252538 0.757615,-0.252538 0.336717,0 0.673435,0 1.010152,0 0.168359,0 0.345357,0.05324 0.505077,0 0.178571,-0.05952 0.322465,-0.206886 0.505076,-0.252539 0.225462,-0.05637 0.970371,0 1.262691,0 0.757614,0 1.515228,0 2.272843,0 0.227629,0 1.103743,0.05298 1.262691,0 0.178571,-0.05952 0.326504,-0.193014 0.505076,-0.252538 0.142481,-0.04749 0.591669,0 0.757614,0 0.420897,0 0.841794,0 1.262691,0 0.505076,0 1.010152,0 1.515229,0 0.165944,0 0.615132,-0.04749 0.757614,0 0.178572,0.05952 0.326505,0.193015 0.505076,0.252538 0.248023,0.08267 1.343872,-0.08568 1.515229,0 0.07529,0.03765 -0.05952,0.193015 0,0.252539 0.05163,0.05163 0.657485,-0.05007 0.757615,0 0.77013,0.385065 -0.461879,0.200203 0.757614,0.505076 0.217637,0.05441 1.408937,-0.07086 1.515229,0 0.156617,0.104412 0.09592,0.400665 0.252538,0.505076 0.140083,0.09339 0.341744,-0.04083 0.505076,0 0.182611,0.04565 0.326505,0.193015 0.505077,0.252538 0.173703,0.0579 0.608611,-0.0745 0.757614,0 0.106479,0.05324 0.146059,0.199299 0.252538,0.252538 0.150585,0.07529 0.386029,-0.119047 0.505076,0 0.05952,0.05952 -0.05952,0.193015 0,0.252539 0.08449,0.08449 0.420587,-0.08449 0.505077,0 0.05952,0.05952 -0.05952,0.193014 0,0.252538 0.119047,0.119047 0.386028,-0.119048 0.505076,0 0.05952,0.05952 -0.05952,0.193014 0,0.252538 0.119048,0.119047 0.354492,-0.07529 0.505076,0 0.303046,0.151523 0.454569,0.606091 0.757615,0.757614 0.07529,0.03765 0.193014,-0.05952 0.252538,0 0.05952,0.05952 -0.05952,0.193015 0,0.252538 0.05952,0.05952 0.177246,-0.03765 0.252538,0 0.06705,0.03353 0.724088,0.690563 0.757614,0.757615 0.03765,0.07529 -0.05952,0.193014 0,0.252538 0.05952,0.05952 0.177246,-0.03765 0.252538,0 0.10648,0.05324 0.168359,0.168359 0.252539,0.252538 0.08418,0.08418 0.199298,0.146059 0.252538,0.252538 0.03765,0.07529 -0.05952,0.193015 0,0.252538 0.133099,0.1331 0.371977,0.119439 0.505076,0.252539 0.119048,0.119047 -0.07529,0.354491 0,0.505076 0.232463,0.464926 0.525151,0.04015 0.757614,0.505076 0.03765,0.07529 -0.03765,0.177246 0,0.252538 0.577884,1.155768 -0.10467,-1.071624 0.505077,0.757615 0.02662,0.07986 -0.03765,0.177245 0,0.252538 0.05324,0.106479 0.199298,0.146058 0.252538,0.252538 0.07529,0.150585 -0.07529,0.354491 0,0.505076 0.05324,0.10648 0.146058,0.199299 0.252538,0.252538 0.07529,0.03765 0.214892,-0.07529 0.252538,0 0.07529,0.150585 -0.05324,0.345357 0,0.505077 0.03765,0.112938 0.214892,0.139599 0.252538,0.252538 0.05324,0.159719 -0.05324,0.345357 0,0.505076 0.07529,0.225877 0.398597,0.292117 0.505076,0.505076 0.06759,0.135184 -0.06759,0.369893 0,0.505077 0.312062,0.624123 0.252539,-0.08717 0.252539,0.505076 0,0.673435 -0.08418,-0.08418 0.252538,0.252538 0.126269,0.126269 -0.126269,0.631345 0,0.757614 0.05952,0.05952 0.193014,-0.05952 0.252538,0 0.05163,0.05163 -0.05007,0.657485 0,0.757615 0.05324,0.106479 0.199298,0.146058 0.252538,0.252538 0.03765,0.07529 -0.02662,0.172678 0,0.252538 0.05952,0.178571 0.193014,0.326505 0.252538,0.505076 0.07852,0.235566 -0.0778,1.029284 0,1.262691 0.03765,0.112938 0.199299,0.146059 0.252538,0.252538 0.03765,0.07529 -0.02662,0.172679 0,0.252538 0.05952,0.178572 0.193015,0.326505 0.252538,0.505077 0.07931,0.237919 -0.08187,1.351496 0,1.515228 0.05324,0.10648 0.214892,0.1396 0.252539,0.252538 0.07576,0.227285 -0.07576,0.530331 0,0.757615 0.05952,0.178571 0.193014,0.326505 0.252538,0.505076 0.02662,0.07986 -0.03765,0.177246 0,0.252538 0.05324,0.10648 0.199298,0.146059 0.252538,0.252538 0.03843,0.07686 0,0.643882 0,0.757615 0,0.673435 0,1.34687 0,2.020305 0,0.168359 0,0.336717 0,0.505076 0,0.08418 -0.03765,0.177246 0,0.252538 0.05324,0.10648 0.199298,0.146059 0.252538,0.252538 0.03839,0.07678 0,0.83577 0,1.010153 0,0.925973 0,1.851946 0,2.77792 0,1.599408 0,3.198816 0,4.798224 0,0.215447 -0.04691,1.673936 0,1.767767 0.05324,0.10648 0.223665,0.137045 0.252538,0.252538 0.06125,0.244998 0,0.505076 0,0.757615 0,0.589255 0,1.178511 0,1.767767 0,0.178999 -0.03265,1.449935 0,1.515228 0.05324,0.10648 0.199298,0.146059 0.252538,0.252539 0.07529,0.150584 -0.07529,0.354491 0,0.505076 0.05324,0.106479 0.199299,0.146059 0.252538,0.252538 0.07936,0.158726 -0.07936,0.851427 0,1.010152 0.10648,0.212959 0.398597,0.292118 0.505077,0.505077 0.03765,0.07529 -0.03765,0.177246 0,0.252538 0.106479,0.212959 0.398596,0.292117 0.505076,0.505076 0.03765,0.07529 -0.05952,0.193014 0,0.252538 0.119048,0.119048 0.354492,-0.07529 0.505076,0 0.10648,0.05324 0.146059,0.199299 0.252538,0.252538 0.07529,0.03765 0.177246,-0.03765 0.252538,0 0.10648,0.05324 0.1396,0.214892 0.252539,0.252539 0.159719,0.05324 0.345357,-0.05324 0.505076,0 0.112938,0.03765 0.146059,0.199298 0.252538,0.252538 0.07529,0.03765 0.193014,-0.05952 0.252538,0 0.05952,0.05952 -0.05952,0.193014 0,0.252538 0.119048,0.119047 0.354492,-0.07529 0.505076,0 0.10648,0.05324 0.146059,0.199298 0.252539,0.252538 0.08048,0.04024 1.036991,0 1.26269,0 0.589256,0 1.178512,0 1.767767,0 0.252538,0 0.518036,0.07986 0.757615,0 0.112938,-0.03765 0.146058,-0.199298 0.252538,-0.252538 0.07529,-0.03765 0.168358,0 0.252538,0 0.168359,0 0.341744,0.04083 0.505076,0 0.182611,-0.04565 0.326505,-0.193014 0.505076,-0.252538 0.07986,-0.02662 0.177246,0.03765 0.252539,0 0.27147,-0.135735 0.475809,-0.392355 0.757614,-0.505077 0.22259,-0.08904 1.230524,0.07118 1.515229,0 0.18261,-0.04565 0.326505,-0.193014 0.505076,-0.252538 0.07986,-0.02662 0.172679,0.02662 0.252538,0 0.178572,-0.05952 0.322466,-0.206885 0.505076,-0.252538 0.40833,-0.102082 0.847521,0.06919 1.262691,0 0.262577,-0.04376 0.495038,-0.208775 0.757615,-0.252538 0.249102,-0.04152 0.505076,0 0.757614,0 0.252538,0 0.505076,0 0.757614,0 1.178512,0 2.357023,0 3.535534,0 3.535537,0 7.071067,0 10.606607,0 0.25253,0 0.50507,0 0.75761,0 0.25254,0 0.50851,-0.04152 0.75761,0 0.26258,0.04376 0.49659,0.200332 0.75762,0.252538 0.16509,0.03302 0.33672,0 0.50507,0 0.50508,0 1.01016,0 1.51523,0 1.59941,0 3.19882,0 4.79823,0 1.09433,0 2.18866,0 3.28299,0 0.008,0 0.6276,0 0.75762,0 0.0842,0 0.25254,-0.08418 0.25254,0 0,0.08418 -0.16836,0 -0.25254,0"
       id="path2989" />
    <rect
       style="fill:#0000ff;fill-rule:evenodd;stroke:#000000;stroke-width:1px;stroke-linecap:butt;stroke-linejoin:miter;stroke-opacity:1"
       id="rect3001"
       width="21.718279"
       height="59.346462"
       x="41.921329"
       y="47.187798"
       transform="translate(0,924.36218)" />
    <rect
       style="fill:#0000ff;fill-rule:evenodd;stroke:#000000;stroke-width:1px;stroke-linecap:butt;stroke-linejoin:miter;stroke-opacity:1"
       id="rect3003"
       width="12.879445"
       height="21.465742"
       x="63.892147"
       y="83.04821"
       transform="translate(0,924.36218)" />
    <rect
       style="fill:#0000ff;fill-rule:evenodd;stroke:#000000;stroke-width:1px;stroke-linecap:butt;stroke-linejoin:miter;stroke-opacity:1"
       id="rect3003-1"
       width="12.879445"
       height="21.465742"
       x="28.663078"
       y="1007.2842" />
  </g>
</svg>
